<svg width="9" height="8" viewBox="0 0 9 8" fill="none" xmlns="http://www.w3.org/2000/svg">
<path d="M7.60102 0.255056C7.75654 0.089653 7.9635 -0.00178848 8.17823 2.65108e-05C8.39296 0.0018415 8.59866 0.0967713 8.75192 0.264784C8.90519 0.432797 8.99403 0.660752 8.99971 0.900549C9.00539 1.14034 8.92745 1.37323 8.78235 1.55005L4.37721 7.70436C4.30146 7.79551 4.21004 7.86865 4.10841 7.91942C4.00678 7.97018 3.89703 7.99754 3.78572 7.99984C3.67441 8.00214 3.56383 7.97935 3.46059 7.93282C3.35734 7.88629 3.26356 7.81698 3.18484 7.72903L0.263544 4.46564C0.182191 4.38096 0.11694 4.27884 0.0716828 4.16537C0.0264258 4.05191 0.00209051 3.92942 0.000128864 3.80522C-0.00183278 3.68102 0.0186195 3.55765 0.0602651 3.44248C0.101911 3.3273 0.163897 3.22267 0.242525 3.13483C0.321154 3.047 0.414814 2.97775 0.517919 2.93123C0.621023 2.88471 0.73146 2.86186 0.84264 2.86405C0.953821 2.86624 1.06347 2.89343 1.16504 2.94398C1.26661 2.99454 1.35802 3.06743 1.43383 3.15831L3.7457 5.73967L7.58004 0.28219C7.58695 0.272694 7.59432 0.263635 7.60212 0.255056H7.60102Z" fill="#F4F4FD"/>
</svg>
